{"title":"What DoesnÃ‚Â´t Kill You.2008.SWESUB.DVDRip.XviD.AC3.(5.1).-Zen_Bu","uid":5558322,"size":1470863250,"categoryP":"video","categoryS":"movies","magnet":"?xt=urn:btih:48c916b45cb37541f5cd7da6b52bdebb1247ba32&amp;dn=What+Doesn%C3%82%C2%B4t+Kill+You.2008.SWESUB.DVDRip.XviD.AC3.%285.1%29.-Zen_Bu&amp;tr=udp%3A%2F%2Ftracker.openbittorrent.com%3A80&amp;tr=udp%3A%2F%2Fopen.demonii.com%3A1337&amp;tr=udp%3A%2F%2Ftracker.coppersurfer.tk%3A6969&amp;tr=udp%3A%2F%2Fexodus.desync.com%3A6969","seeders":5,"leechers":0,"uploader":"Zen_Bud","files":-1,"time":1273709639,"description":"General\nComplete name                    : What Doesn't Kill You.avi\nFormat                           : AVI\nFile size                        : 1.37 GiB\nDuration                         : 1h 35mn\nOverall bit rate                 : 2 046 Kbps\n\nVideo\nID                               : 0\nFormat                           : MPEG-4 Visual\nCodec ID/Hint                    : XviD\nDuration                         : 1h 35mn\nBit rate                         : 1 587 Kbps\nWidth                            : 718 pixels\nHeight                           : 436 pixels\nDisplay aspect ratio             : 2.35:1\nResolution                       : 8 bits\nColorimetry                      : 4:2:0\nStream size                      : 1.06 GiB (78%)\nWriting library                  : XviD 1.1.2 (UTC 2006-11-01)\n\nAudio\nID                               : 1\nFormat                           : AC-3\nDuration                         : 1h 35mn\nBit rate mode                    : Constant\nBit rate                         : 448 Kbps\nChannel(s)                       : 6 channels\nChannel positions                : Front: L C R, Side: L R, LFE\nSampling rate                    : 48.0 KHz\nStream size                      : 307 MiB (22%)\n\n\n","torrent":{"xt":"urn:btih:48c916b45cb37541f5cd7da6b52bdebb1247ba32","amp;dn":"What+Doesn%C3%82%C2%B4t+Kill+You.2008.SWESUB.DVDRip.XviD.AC3.%285.1%29.-Zen_Bu","amp;tr":["udp%3A%2F%2Ftracker.openbittorrent.com%3A80","udp%3A%2F%2Fopen.demonii.com%3A1337","udp%3A%2F%2Ftracker.coppersurfer.tk%3A6969","udp%3A%2F%2Fexodus.desync.com%3A6969"],"infoHash":"48c916b45cb37541f5cd7da6b52bdebb1247ba32","infoHashBuffer":{"type":"Buffer","data":[72,201,22,180,92,179,117,65,245,205,125,166,181,43,222,187,18,71,186,50]},"announce":[],"urlList":[]}}